<svg xmlns="http://www.w3.org/2000/svg" width="600" height="400" viewBox="0 0 600 400">
  <defs>
    <linearGradient id="office-bg" x1="0%" y1="0%" x2="100%" y2="100%">
      <stop offset="0%" stop-color="#f5f7fa" />
      <stop offset="100%" stop-color="#c3cfe2" />
    </linearGradient>
    
    <linearGradient id="window-gradient" x1="0%" y1="0%" x2="0%" y2="100%">
      <stop offset="0%" stop-color="#3498db" stop-opacity="0.3" />
      <stop offset="100%" stop-color="#2c3e50" stop-opacity="0.1" />
    </linearGradient>
    
    <linearGradient id="desk-gradient" x1="0%" y1="0%" x2="100%" y2="0%">
      <stop offset="0%" stop-color="#8B4513" />
      <stop offset="50%" stop-color="#A0522D" />
      <stop offset="100%" stop-color="#8B4513" />
    </linearGradient>
  </defs>
  
  <!-- Office Background -->
  <rect width="600" height="400" fill="url(#office-bg)" />
  
  <!-- Floor -->
  <rect x="0" y="350" width="600" height="50" fill="#f0f0f0" />
  <line x1="0" y1="350" x2="600" y2="350" stroke="#ddd" stroke-width="2" />
  
  <!-- Windows -->
  <rect x="50" y="50" width="150" height="200" rx="5" fill="url(#window-gradient)" />
  <rect x="55" y="55" width="140" height="190" rx="3" fill="#87CEEB" opacity="0.7" />
  <line x1="125" y1="55" x2="125" y2="245" stroke="#fff" stroke-width="2" opacity="0.5" />
  <line x1="55" y1="150" x2="195" y2="150" stroke="#fff" stroke-width="2" opacity="0.5" />
  
  <rect x="400" y="50" width="150" height="200" rx="5" fill="url(#window-gradient)" />
  <rect x="405" y="55" width="140" height="190" rx="3" fill="#87CEEB" opacity="0.7" />
  <line x1="475" y1="55" x2="475" y2="245" stroke="#fff" stroke-width="2" opacity="0.5" />
  <line x1="405" y1="150" x2="545" y2="150" stroke="#fff" stroke-width="2" opacity="0.5" />
  
  <!-- Office Desks -->
  <!-- Desk 1 -->
  <rect x="100" y="280" width="150" height="10" fill="url(#desk-gradient)" />
  <rect x="110" y="290" width="10" height="60" fill="#8B4513" />
  <rect x="230" y="290" width="10" height="60" fill="#8B4513" />
  
  <!-- Computer on Desk 1 -->
  <rect x="130" y="250" width="40" height="30" fill="#333" />
  <rect x="135" y="255" width="30" height="20" fill="#3498db" />
  <rect x="145" y="280" width="10" height="5" fill="#333" />
  <rect x="135" y="285" width="30" height="2" fill="#333" />
  
  <!-- Desk 2 -->
  <rect x="350" y="280" width="150" height="10" fill="url(#desk-gradient)" />
  <rect x="360" y="290" width="10" height="60" fill="#8B4513" />
  <rect x="480" y="290" width="10" height="60" fill="#8B4513" />
  
  <!-- Computer on Desk 2 -->
  <rect x="380" y="250" width="40" height="30" fill="#333" />
  <rect x="385" y="255" width="30" height="20" fill="#3498db" />
  <rect x="395" y="280" width="10" height="5" fill="#333" />
  <rect x="385" y="285" width="30" height="2" fill="#333" />
  
  <!-- Office Chair 1 -->
  <rect x="170" y="300" width="30" height="5" fill="#444" />
  <rect x="180" y="305" width="10" height="30" fill="#444" />
  <rect x="165" y="320" width="40" height="10" fill="#444" rx="5" />
  <rect x="175" y="330" width="20" height="20" fill="#444" rx="3" />
  <circle cx="175" cy="350" r="5" fill="#222" />
  <circle cx="195" cy="350" r="5" fill="#222" />
  
  <!-- Office Chair 2 -->
  <rect x="420" y="300" width="30" height="5" fill="#444" />
  <rect x="430" y="305" width="10" height="30" fill="#444" />
  <rect x="415" y="320" width="40" height="10" fill="#444" rx="5" />
  <rect x="425" y="330" width="20" height="20" fill="#444" rx="3" />
  <circle cx="425" cy="350" r="5" fill="#222" />
  <circle cx="445" cy="350" r="5" fill="#222" />
  
  <!-- Center Table -->
  <ellipse cx="300" cy="320" rx="70" ry="30" fill="url(#desk-gradient)" />
  <ellipse cx="300" cy="320" rx="60" ry="25" fill="#A0522D" />
  
  <!-- Items on Center Table -->
  <rect x="280" y="300" width="40" height="10" fill="#fff" />
  <rect x="285" y="295" width="30" height="5" fill="#ddd" />
  <circle cx="270" cy="310" r="10" fill="#3498db" opacity="0.8" />
  <circle cx="330" cy="315" r="5" fill="#e74c3c" opacity="0.8" />
  
  <!-- Plants -->
  <rect x="50" y="300" width="20" height="50" fill="#8B4513" />
  <circle cx="60" cy="280" r="25" fill="#2ecc71" />
  <circle cx="45" cy="270" r="15" fill="#2ecc71" />
  <circle cx="75" cy="270" r="15" fill="#2ecc71" />
  <circle cx="60" cy="255" r="15" fill="#2ecc71" />
  
  <rect x="530" y="300" width="20" height="50" fill="#8B4513" />
  <circle cx="540" cy="280" r="25" fill="#2ecc71" />
  <circle cx="525" cy="270" r="15" fill="#2ecc71" />
  <circle cx="555" cy="270" r="15" fill="#2ecc71" />
  <circle cx="540" cy="255" r="15" fill="#2ecc71" />
  
  <!-- Wall Decorations -->
  <rect x="250" y="100" width="100" height="70" fill="#fff" stroke="#ddd" stroke-width="5" />
  <rect x="260" y="110" width="80" height="50" fill="#3498db" opacity="0.3" />
  
  <!-- Company Logo on Wall -->
  <circle cx="300" cy="135" r="20" fill="#3498db" />
  <path d="M290 125 L310 125 L300 145 Z" fill="#fff" />
  
  <!-- Ceiling Lights -->
  <rect x="150" y="30" width="80" height="10" fill="#ddd" rx="5" />
  <rect x="155" y="35" width="70" height="5" fill="#fff" rx="2" />
  
  <rect x="370" y="30" width="80" height="10" fill="#ddd" rx="5" />
  <rect x="375" y="35" width="70" height="5" fill="#fff" rx="2" />
</svg>