<svg xmlns="http://www.w3.org/2000/svg" width="100" height="100" viewBox="0 0 100 100">
  <defs>
    <linearGradient id="bg-gradient" x1="0%" y1="0%" x2="100%" y2="100%">
      <stop offset="0%" stop-color="#3498db" stop-opacity="0.1" />
      <stop offset="100%" stop-color="#2c3e50" stop-opacity="0.1" />
    </linearGradient>
  </defs>
  
  <!-- Background Circle -->
  <circle cx="50" cy="50" r="50" fill="url(#bg-gradient)" />
  
  <!-- Suit -->
  <rect x="35" y="60" width="30" height="40" fill="#34495e" />
  <rect x="40" y="60" width="20" height="10" fill="#fff" />
  <rect x="45" y="60" width="10" height="20" fill="#fff" />
  
  <!-- Neck -->
  <rect x="45" y="50" width="10" height="10" fill="#e0ac69" />
  
  <!-- Head -->
  <circle cx="50" cy="35" r="20" fill="#e0ac69" />
  
  <!-- Hair -->
  <path d="M50 15 Q30 15 30 35 Q30 45 40 45 L60 45 Q70 45 70 35 Q70 15 50 15 Z" fill="#4a2c0f" />
  
  <!-- Eyes -->
  <ellipse cx="42" cy="32" rx="3" ry="2" fill="#fff" />
  <ellipse cx="58" cy="32" rx="3" ry="2" fill="#fff" />
  <circle cx="42" cy="32" r="1" fill="#2c3e50" />
  <circle cx="58" cy="32" r="1" fill="#2c3e50" />
  
  <!-- Eyebrows -->
  <path d="M39 28 Q42 26 45 28" stroke="#4a2c0f" stroke-width="1" fill="none" />
  <path d="M55 28 Q58 26 61 28" stroke="#4a2c0f" stroke-width="1" fill="none" />
  
  <!-- Nose -->
  <path d="M50 32 L48 38 L52 38" fill="#e0ac69" />
  
  <!-- Mouth -->
  <path d="M42 42 Q50 45 58 42" stroke="#c0392b" stroke-width="1" fill="none" />
  
  <!-- Tie -->
  <path d="M50 60 L45 70 L50 80 L55 70 Z" fill="#e74c3c" />
</svg>