<svg xmlns="http://www.w3.org/2000/svg" width="300" height="300" viewBox="0 0 300 300">
  <defs>
    <linearGradient id="bg-gradient" x1="0%" y1="0%" x2="100%" y2="100%">
      <stop offset="0%" stop-color="#3498db" stop-opacity="0.1" />
      <stop offset="100%" stop-color="#2c3e50" stop-opacity="0.1" />
    </linearGradient>
  </defs>
  
  <!-- Background -->
  <rect width="300" height="300" fill="url(#bg-gradient)" />
  
  <!-- Blazer -->
  <rect x="100" y="150" width="100" height="150" fill="#8e44ad" />
  <rect x="120" y="150" width="60" height="30" fill="#fff" />
  
  <!-- Neck -->
  <rect x="140" y="120" width="20" height="30" fill="#ffd9b3" />
  
  <!-- Head -->
  <circle cx="150" cy="90" r="50" fill="#ffd9b3" />
  
  <!-- Hair -->
  <path d="M150 40 Q100 40 100 80 L100 100 Q120 110 150 100 Q180 110 200 100 L200 80 Q200 40 150 40 Z" fill="#8B4513" />
  <path d="M100 80 Q120 90 150 80 Q180 90 200 80" fill="#8B4513" />
  
  <!-- Eyes -->
  <ellipse cx="130" cy="85" rx="8" ry="5" fill="#fff" />
  <ellipse cx="170" cy="85" rx="8" ry="5" fill="#fff" />
  <circle cx="130" cy="85" r="3" fill="#2c3e50" />
  <circle cx="170" cy="85" r="3" fill="#2c3e50" />
  
  <!-- Eyebrows -->
  <path d="M120 75 Q130 70 140 75" stroke="#8B4513" stroke-width="2" fill="none" />
  <path d="M160 75 Q170 70 180 75" stroke="#8B4513" stroke-width="2" fill="none" />
  
  <!-- Nose -->
  <path d="M150 85 L145 100 L155 100" fill="#ffd9b3" />
  
  <!-- Mouth -->
  <path d="M130 110 Q150 120 170 110" stroke="#c0392b" stroke-width="2" fill="none" />
  
  <!-- Necklace -->
  <path d="M140 150 Q150 160 160 150" stroke="#f1c40f" stroke-width="3" fill="none" />
  <circle cx="150" cy="155" r="3" fill="#f1c40f" />
  
  <!-- Earrings -->
  <circle cx="100" cy="90" r="3" fill="#f1c40f" />
  <circle cx="200" cy="90" r="3" fill="#f1c40f" />
</svg>